<svg xmlns="http://www.w3.org/2000/svg" width="155.49" height="185.69" viewBox="0 0 155.49 185.69"><circle cx="140.74" cy="68.83" r="14.75" style="fill:#fff"/><path d="M89.11,139.54,82,157.42,59.22,172.34a7.16,7.16,0,0,0,3.53,13.39,7.09,7.09,0,0,0,4.12-1.31c3.76-2.37,22.35-14.08,25.49-15.88a8.42,8.42,0,0,0,4.13-5.12l4.87-16-5.75-2.63C89.86,142.17,89.11,139.54,89.11,139.54Z" transform="translate(-0.51 -0.05)" style="fill:#fff"/><path d="M139.32,141.46s-1.16-3.83-4.58-5.16-18.08-7.75-18.08-7.75L132.07,103s3.84-9-.33-13.42S118,79.79,118,79.79h-7.52L126.27,53A12,12,0,0,0,122,36.56L72.63,7.45A12,12,0,0,0,56.2,11.69L9.14,91.52A12,12,0,0,0,13.39,108l49.39,29.11a12,12,0,0,0,16.43-4.24l22.93-38.9h8.1L95.49,120.13s-5.13,9.21-.33,14.25c4.2,4.41,12.66,6.91,12.66,6.91l17.25,6.5,5.1,31.3h0a7.17,7.17,0,0,0,14.24-1.14c0-.19,0-.37,0-.56h0ZM18,100.2a3,3,0,0,1-1.06-4.11L64,16.26a3,3,0,0,1,4.1-1.06L79.58,22l-50.1,85Zm53.5,28.05a3,3,0,0,1-4.11,1.06L37.23,111.56l50.11-85,30.11,17.76a3,3,0,0,1,1.06,4.1L100,79.79H91.24L71.32,94.22a7.7,7.7,0,0,0-1.23.89l0,0h0a7.16,7.16,0,0,0,9,11.14h0l.07-.06a5.43,5.43,0,0,0,.53-.42L89.28,98Z" transform="translate(-0.51 -0.05)" style="fill:#fff"/><path d="M49.22,5.94,2.16,85.77A12,12,0,0,0,6.4,102.2l49.39,29.12a12,12,0,0,0,16.44-4.24l47.05-79.83A12,12,0,0,0,115,30.81L65.65,1.7A12,12,0,0,0,49.22,5.94ZM9.91,90.34,57,10.51a3,3,0,0,1,4.11-1.06L72.6,16.24l-50.1,85L11,94.45A3,3,0,0,1,9.91,90.34ZM111.53,42.68,64.47,122.51a3,3,0,0,1-4.1,1.06L30.25,105.81l50.11-85,30.11,17.75A3,3,0,0,1,111.53,42.68Z" transform="translate(-0.51 -0.05)" style="fill:#f0c42e"/><circle cx="134.74" cy="63.04" r="14.75" style="fill:#3a3a3a"/><path d="M81.88,133.75,74.8,151.63,52,166.54a7.16,7.16,0,1,0,7.65,12.09c3.76-2.37,22.35-14.09,25.5-15.88a8.38,8.38,0,0,0,4.12-5.13l4.88-16L88.38,139C82.63,136.37,81.88,133.75,81.88,133.75Z" transform="translate(-0.51 -0.05)" style="fill:#3a3a3a"/><path d="M132.08,135.67s-1.16-3.84-4.58-5.17-18.08-7.75-18.08-7.75l15.41-25.58s3.84-9-.33-13.42S110.75,74,110.75,74H84L64.08,88.43a7.13,7.13,0,0,0-1.23.89l0,0h0a7.16,7.16,0,0,0,9,11.14h0l.07-.06.52-.43L87.13,88.12H103L88.25,114.33s-5.13,9.22-.33,14.25c4.21,4.42,12.66,6.92,12.66,6.92l17.25,6.5,5.1,31.29h0a7.17,7.17,0,0,0,14.24-1.15c0-.18,0-.37,0-.56h0Z" transform="translate(-0.51 -0.05)" style="fill:#3a3a3a"/></svg>