<svg xmlns="http://www.w3.org/2000/svg" width="138.34" height="163.84" viewBox="0 0 138.34 163.84"><path d="M93.13,38.77A17.47,17.47,0,0,0,110,25.72l5.47.81.32,0a2.16,2.16,0,0,0,.32-4.3l-5.55-.82a.66.66,0,0,0,0-.14c0-.18,0-.36,0-.54a90.49,90.49,0,0,0-1.07-9.24A4.22,4.22,0,0,0,107,8.23,111.2,111.2,0,0,0,84.6,5.79c-2.6,0-3.16,1.33-3.16,1.33l-3.15,5h0c-.07.13-.14.25-.22.37l0,0A17.47,17.47,0,0,0,93.13,38.77Z" transform="translate(0 0.25)" style="fill:#fff"/><path d="M131.54,78.08h0l-26.75-2.16L95.55,54.79s-.46-2.77-6-8.47-16.8-3.39-16.8-3.39S48.85,47.4,41,49.25s-8.16,9.86-8.16,9.86l-.64,4.52L17,60.69a2.76,2.76,0,0,0-.57-.06,3,3,0,0,0-2.95,2.43L6.09,101.3a3,3,0,0,0,2.37,3.52l51.2,9.92.35,0h0a3.76,3.76,0,0,1-1.29,0l-9.4-1.85L46.24,130,22.68,150.36a7.42,7.42,0,1,0,9.85,11.08s27.73-22.05,29.58-23.59A10.91,10.91,0,0,0,64.88,134s4.54-14,5.78-16.87c.85-2,4.93-1.08,4.93-1.08l22.89,8.63,7.61,29.06a7.23,7.23,0,0,0,.47,1.8h0a7.43,7.43,0,0,0,14.32-2.77,7.67,7.67,0,0,0-.21-1.74c-.84-5-4.61-27-5.56-31.82-1.08-5.4-4.62-6.94-4.62-6.94S89.23,100.72,87.84,99.94s-1.08-2.77-1.08-2.77l3.93-14.33,2.78,5.85s1.62,3.28,4.08,3.4l33.36.82a7.43,7.43,0,0,0,.62-14.83ZM60.1,62.81l-1.78,5.88,9.89,1.92L48,66.69l.55-2.5Zm-2.24,45.47L12.55,99.5l6.27-32.35,12.54,2.43L29.75,81.14l-.64,4.41s0,.06,0,.08v.13h0a7.43,7.43,0,1,0,14.79.95,7.3,7.3,0,0,0-.06-.94l2.9-13.22,17.42,3.37Z" transform="translate(0 0.25)" style="fill:#fff"/><path d="M25.05,17h38a2,2,0,1,0,0-4h-38a2,2,0,1,0,0,4Z" transform="translate(0 0.25)" style="fill:#fff"/><path d="M38.08,23a2,2,0,1,0,0,4H61a2,2,0,1,0,0-4Z" transform="translate(0 0.25)" style="fill:#fff"/><path d="M87.1,32.73a17.47,17.47,0,0,0,16.9-13l5.47.82.32,0a2.16,2.16,0,0,0,.31-4.29l-5.54-.83v-.13c0-.19,0-.37,0-.55a88.37,88.37,0,0,0-1.08-9.23,4.25,4.25,0,0,0-2.53-3.3A112,112,0,0,0,78.56-.25c-2.6,0-3.15,1.34-3.15,1.34l-3.15,5h0c-.08.12-.15.24-.22.37l0,0A17.46,17.46,0,0,0,87.1,32.73Z" transform="translate(0 0.25)" style="fill:#3a3a3a"/><path d="M125.5,72h0L98.76,69.87,89.51,48.76s-.46-2.77-6-8.48-16.8-3.39-16.8-3.39S42.82,41.36,35,43.21s-8.17,9.86-8.17,9.86l-3.08,22-.64,4.41a.19.19,0,0,0,0,.08l0,.12h0a7.61,7.61,0,0,0-.06,1,7.43,7.43,0,0,0,14.86,0,7.3,7.3,0,0,0-.06-.94l4.73-21.58,11.56-1.39-1.79,5.88,9.9,1.92a3,3,0,0,1,2.37,3.52l-7.41,38.24a3,3,0,0,1-3,2.43l-.22,0a3.76,3.76,0,0,1-1.29,0l-9.4-1.85L40.2,124,16.64,144.32a7.43,7.43,0,1,0,9.86,11.09s27.72-22,29.57-23.59A10.9,10.9,0,0,0,58.84,128s4.54-13.94,5.78-16.87c.85-2,4.93-1.08,4.93-1.08l22.89,8.63,7.61,29.06a7.78,7.78,0,0,0,.48,1.81h0a7.43,7.43,0,0,0,14.32-2.78,7,7,0,0,0-.21-1.73c-.84-5-4.6-27-5.56-31.83-1.08-5.39-4.62-6.93-4.62-6.93S83.19,94.68,81.81,93.91s-1.08-2.77-1.08-2.77L84.66,76.8l2.77,5.86s1.62,3.27,4.09,3.39l33.35.82A7.43,7.43,0,0,0,125.5,72Z" transform="translate(0 0.25)" style="fill:#3a3a3a"/><path d="M54,108.74h0l.22,0a3,3,0,0,0,3-2.43l7.41-38.24a3,3,0,0,0-2.37-3.52L42,60.65l-1.28,5.87,17.41,3.37-6.27,32.35L6.52,93.46l6.27-32.35,12.54,2.43.83-5.95L11,54.65a2.75,2.75,0,0,0-.57,0A3,3,0,0,0,7.47,57L.06,95.27a3,3,0,0,0,2.37,3.51l51.2,9.93C53.74,108.73,53.86,108.73,54,108.74Z" transform="translate(0 0.25)" style="fill:#f0c42e"/><path d="M59,9a2,2,0,0,1-2,2H19a2,2,0,1,1,0-4H57A2,2,0,0,1,59,9Z" transform="translate(0 0.25)" style="fill:#f0c52e"/><path d="M57,19a2,2,0,0,1-2,2H32a2,2,0,1,1,0-4H55A2,2,0,0,1,57,19Z" transform="translate(0 0.25)" style="fill:#f0c52e"/></svg>