<svg xmlns="http://www.w3.org/2000/svg" viewBox="0 0 96.95 54.99"><path d="M84.13,32.64V20a2.36,2.36,0,0,1,2.34-2.37l8.32,1.58V11c0-2.35-1.71-3.43-4.2-4.26L67.4.18c1.62,1.39,1.89,2,1.89,4.39V49.78c0,2.36-.45,4.07-2,5.21l23.27-7.07c2.4-.83,4.2-4.21,4.2-6.57V33.44L86.47,35A2.36,2.36,0,0,1,84.13,32.64Z" transform="translate(0 0)" style="fill:#363636"/><path d="M95.13,21l-7.6-1.45a1.84,1.84,0,0,0-1.82,1.86v9.86a1.84,1.84,0,0,0,1.82,1.86l7.6-1.44c1.15-.41,1.82-.82,1.82-1.85v-7C97,21.81,96.19,21.32,95.13,21Z" transform="translate(0 0)" style="fill:#363636"/><path d="M67.17,4.48C67.17-.6,62.94,0,62.94,0S5.83,4.74,2.84,5.14,0,9.53,0,9.53V45.81c0,3.75,2.6,3.75,2.6,3.75L19.08,51,27.21,39.3s1.11-1.83,2.51-1.83,2.43,1.86,2.43,1.86l9.06,13.52s18.89,1.91,22.52,1.91,3.44-5,3.44-5ZM13,37.19c-3.7,0-6.69-4.6-6.69-10.27s3-10.28,6.69-10.28,6.7,4.6,6.7,10.28S16.68,37.19,13,37.19Zm36.16,1.43c-4.66,0-8.44-5.24-8.44-11.7s3.78-11.7,8.44-11.7,8.44,5.23,8.44,11.7S53.8,38.62,49.14,38.62Z" transform="translate(0 0)" style="fill:#363636"/></svg>