<svg xmlns="http://www.w3.org/2000/svg" viewBox="0 0 71.02 87"><path d="M53.35,1.49A1.46,1.46,0,0,0,52,0h-43A1.52,1.52,0,0,0,7.67,1.49V5H53.35V1.49Z" style="fill:#363636"/><path d="M54.2,81.81H44.6V71.43h-7v2.5H18.77a3.48,3.48,0,0,0-3.18-2.15h-12A3.59,3.59,0,0,0,0,75.31v3a3.55,3.55,0,0,0,3.56,3.48h12a3.37,3.37,0,0,0,3.27-2.33H37.65v2.33H28.13a1,1,0,0,0-1,1V86a1.08,1.08,0,0,0,1,1H54.2a1,1,0,0,0,.93-1V82.78A.94.94,0,0,0,54.2,81.81Z" style="fill:#363636"/><path d="M60.67,12.39A7,7,0,0,0,53.9,7.34H7.15a7.1,7.1,0,0,0-7.15,7v46.9a7.18,7.18,0,0,0,7.15,7.12H53.9A7.16,7.16,0,0,0,61,61.26V50.92a23.33,23.33,0,0,0-.35-38.53ZM12.24,62.15a5.92,5.92,0,1,1,5.9-5.92A5.91,5.91,0,0,1,12.24,62.15Zm6-32.6A1.43,1.43,0,0,1,16.78,31H7.84a1.43,1.43,0,0,1-1.42-1.42V15.39A1.43,1.43,0,0,1,7.84,14h8.94a1.43,1.43,0,0,1,1.42,1.43V29.55ZM47.76,51.86A20.13,20.13,0,1,1,67.82,31.74,20.09,20.09,0,0,1,47.76,51.86Z" style="fill:#363636"/><ellipse cx="47.76" cy="31.74" rx="12.19" ry="12.23" style="fill:#363636"/><circle cx="31.56" cy="31.74" r="1.44" style="fill:#363636"/><circle cx="63.96" cy="31.74" r="1.44" style="fill:#363636"/><circle cx="39.11" cy="17.99" r="1.44" style="fill:#363636"/><ellipse cx="56.42" cy="45.48" rx="1.43" ry="1.44" style="fill:#363636"/><circle cx="55.7" cy="17.57" r="1.44" style="fill:#363636"/><circle cx="39.83" cy="45.91" r="1.44" style="fill:#363636"/></svg>