<svg xmlns="http://www.w3.org/2000/svg" viewBox="0 0 85.87 117"><path d="M82.82,4H3.33A3.19,3.19,0,0,0,.14,7.2V53.61A3.19,3.19,0,0,0,3.33,56.8H82.82A3.19,3.19,0,0,0,86,53.61V7.2A3.19,3.19,0,0,0,82.82,4ZM8.39,37.24H8.17A3.19,3.19,0,0,1,5,34.05V26.76a3.18,3.18,0,0,1,3.19-3.18h.22ZM69.62,52.41H13.34V8.4H69.62ZM78.4,34.55a4.15,4.15,0,1,1,4.15-4.15A4.15,4.15,0,0,1,78.4,34.55Z" transform="translate(-0.14)" style="fill:#363636"/><rect x="31.35" width="23.16" height="2.76" style="fill:#363636"/><path d="M46.61,64.86v-3h8V59.13H31.5v2.76h8V97.13a6.07,6.07,0,0,0-3.63,5.56V117H50.24V102.69a6,6,0,0,0-3.63-5.55v-28H51.4l5.05,1.21V63.65L51.4,64.86Z" transform="translate(-0.14)" style="fill:#363636"/></svg>