<svg xmlns="http://www.w3.org/2000/svg" viewBox="0 0 56.01 97.98"><path d="M54.49,32.2H53V27.56a9.16,9.16,0,0,0-9.08-9.19H9.08A9.16,9.16,0,0,0,0,27.56V70.43a9.16,9.16,0,0,0,9.08,9.18H43.9A9.16,9.16,0,0,0,53,70.43V67h1.51a.76.76,0,0,0,.76-.76V52.47a.77.77,0,0,0-.76-.77H53V42.91h1.51A1.52,1.52,0,0,0,56,41.38V33.73A1.53,1.53,0,0,0,54.49,32.2ZM34.08,29.09a5.36,5.36,0,1,1-5.3,5.36A5.33,5.33,0,0,1,34.08,29.09Zm-15.14,0a5.36,5.36,0,1,1-5.29,5.36A5.33,5.33,0,0,1,18.94,29.09ZM5.3,49.4a5.3,5.3,0,1,1,5.29,5.36A5.33,5.33,0,0,1,5.3,49.4ZM18.94,68.89a5.36,5.36,0,1,1,5.3-5.35A5.32,5.32,0,0,1,18.94,68.89ZM20.43,49a6.06,6.06,0,1,1,6.06,6.13A6.09,6.09,0,0,1,20.43,49Zm13.65,19.9a5.36,5.36,0,1,1,5.3-5.35A5.33,5.33,0,0,1,34.08,68.89Zm8.3-14.13a5.36,5.36,0,1,1,5.3-5.36A5.33,5.33,0,0,1,42.38,54.76Z" style="fill:#363636"/><path d="M9.65,15.31H43.33a1.28,1.28,0,0,0,1.31-1.51L43,3h0a3.67,3.67,0,0,0-3.51-3h-26A3.67,3.67,0,0,0,10,3L8.34,13.8A1.28,1.28,0,0,0,9.65,15.31Z" style="fill:#363636"/><path d="M43.33,82.67H9.65a1.29,1.29,0,0,0-1.31,1.52L10,95a3.67,3.67,0,0,0,3.51,3h26A3.67,3.67,0,0,0,43,95h0l1.62-10.76A1.29,1.29,0,0,0,43.33,82.67Z" style="fill:#363636"/></svg>