<svg xmlns="http://www.w3.org/2000/svg" viewBox="0 0 107.31 64.99"><path d="M99,4.07a10.43,10.43,0,0,1,1.21,4.82V30a10.51,10.51,0,0,1-7.25,9.9,18.69,18.69,0,0,1-8.05,10.44c-8.68,5.23-31.13,4.83-31.2,4.83s-22.51.4-31.19-4.83a18.76,18.76,0,0,1-8-10.28A10.51,10.51,0,0,1,6.69,30V8.89A10.41,10.41,0,0,1,7.83,4.2C4.17,5.11,0,6.92,0,10.43v30C0,50.67,11.84,64.85,53.66,64.85s53.65-14.18,53.65-24.43v-30C107.31,6.75,102.74,4.94,99,4.07Z" transform="translate(0 0.14)" style="fill:#363636"/><path d="M20.56,38.46H86.08A10.08,10.08,0,0,0,96.16,28.38V9.94A10.08,10.08,0,0,0,86.08-.14H20.56A10.07,10.07,0,0,0,10.49,9.94V28.38A10.07,10.07,0,0,0,20.56,38.46Zm63.13-29A1.57,1.57,0,1,1,82.13,11,1.57,1.57,0,0,1,83.69,9.47Zm0,4a1.57,1.57,0,1,1-1.56,1.56A1.56,1.56,0,0,1,83.69,13.51Zm0,4a1.57,1.57,0,1,1-1.56,1.56A1.56,1.56,0,0,1,83.69,17.55Zm0,3.82a1.57,1.57,0,1,1-1.56,1.57A1.57,1.57,0,0,1,83.69,21.37Zm0,4A1.57,1.57,0,1,1,82.13,27,1.57,1.57,0,0,1,83.69,25.41Zm-4-15.94A1.57,1.57,0,1,1,78.09,11,1.56,1.56,0,0,1,79.66,9.47Zm0,15.94A1.57,1.57,0,1,1,78.09,27,1.56,1.56,0,0,1,79.66,25.41Zm-4-15.94A1.57,1.57,0,1,1,74.05,11,1.57,1.57,0,0,1,75.62,9.47Zm0,4a1.57,1.57,0,1,1-1.57,1.56A1.57,1.57,0,0,1,75.62,13.51Zm0,4a1.57,1.57,0,1,1-1.57,1.56A1.57,1.57,0,0,1,75.62,17.55Zm0,3.82a1.57,1.57,0,1,1-1.57,1.57A1.58,1.58,0,0,1,75.62,21.37Zm0,4A1.57,1.57,0,1,1,74.05,27,1.57,1.57,0,0,1,75.62,25.41ZM68,9.47A1.57,1.57,0,1,1,66.4,11,1.57,1.57,0,0,1,68,9.47Zm0,8.08a1.57,1.57,0,1,1-1.56,1.56A1.56,1.56,0,0,1,68,17.55Zm0,3.88A1.57,1.57,0,1,1,66.4,23,1.57,1.57,0,0,1,68,21.43Zm0,4A1.57,1.57,0,1,1,66.4,27,1.57,1.57,0,0,1,68,25.41Zm-4-15.94A1.57,1.57,0,1,1,62.36,11,1.57,1.57,0,0,1,63.93,9.47Zm0,8.08a1.57,1.57,0,1,1-1.57,1.56A1.57,1.57,0,0,1,63.93,17.55Zm0,7.86A1.57,1.57,0,1,1,62.36,27,1.57,1.57,0,0,1,63.93,25.41Zm-4-15.94A1.57,1.57,0,1,1,58.32,11,1.57,1.57,0,0,1,59.89,9.47Zm0,4a1.57,1.57,0,1,1-1.57,1.56A1.57,1.57,0,0,1,59.89,13.51Zm0,4a1.57,1.57,0,1,1-1.57,1.56A1.57,1.57,0,0,1,59.89,17.55Zm0,7.86A1.57,1.57,0,1,1,58.32,27,1.57,1.57,0,0,1,59.89,25.41ZM51.6,9.47A1.57,1.57,0,1,1,50,11,1.57,1.57,0,0,1,51.6,9.47Zm0,4A1.57,1.57,0,1,1,50,15.07,1.56,1.56,0,0,1,51.6,13.51Zm0,4A1.57,1.57,0,1,1,50,19.11,1.56,1.56,0,0,1,51.6,17.55Zm0,3.88A1.57,1.57,0,1,1,50,23,1.57,1.57,0,0,1,51.6,21.43Zm0,4A1.57,1.57,0,1,1,50,27,1.57,1.57,0,0,1,51.6,25.41Zm-4-11.9A1.57,1.57,0,1,1,46,15.07,1.56,1.56,0,0,1,47.56,13.51Zm-8.5-.21a1.57,1.57,0,1,1-1.57,1.56A1.57,1.57,0,0,1,39.06,13.3Zm0,4a1.57,1.57,0,1,1-1.57,1.57A1.58,1.58,0,0,1,39.06,17.33ZM35,9.26a1.57,1.57,0,1,1-1.57,1.56A1.57,1.57,0,0,1,35,9.26Zm0,4a1.57,1.57,0,1,1-1.57,1.56A1.57,1.57,0,0,1,35,13.3Zm0,4a1.57,1.57,0,1,1-1.57,1.57A1.58,1.58,0,0,1,35,17.33Zm0,4a1.57,1.57,0,1,1-1.57,1.57A1.58,1.58,0,0,1,35,21.37ZM30.76,13.3a1.57,1.57,0,1,1-1.56,1.56A1.56,1.56,0,0,1,30.76,13.3Zm0,4A1.57,1.57,0,1,1,29.2,18.9,1.57,1.57,0,0,1,30.76,17.33Zm0,4a1.57,1.57,0,1,1-1.56,1.57A1.57,1.57,0,0,1,30.76,21.37Zm0,4A1.57,1.57,0,1,1,29.2,27,1.57,1.57,0,0,1,30.76,25.41ZM26.3,9.26a1.57,1.57,0,1,1-1.57,1.56A1.56,1.56,0,0,1,26.3,9.26Zm0,4a1.57,1.57,0,1,1-1.57,1.56A1.56,1.56,0,0,1,26.3,13.3Zm0,4a1.57,1.57,0,1,1-1.57,1.57A1.57,1.57,0,0,1,26.3,17.33Zm0,4a1.57,1.57,0,1,1-1.57,1.57A1.57,1.57,0,0,1,26.3,21.37Zm-4-8.07a1.57,1.57,0,1,1-1.57,1.56A1.56,1.56,0,0,1,22.26,13.3Zm0,4a1.57,1.57,0,1,1-1.57,1.57A1.57,1.57,0,0,1,22.26,17.33Z" transform="translate(0 0.14)" style="fill:#363636"/></svg>