<svg xmlns="http://www.w3.org/2000/svg" viewBox="0 0 132.03 69.01"><path d="M12.05.26C6.51.75,1.84,1.85.58,2.93c-.73.62-.73.62-.24,1.16C1,4.81,4.06,5.73,7.59,6.32c4,.67,12.51.7,13.72,0a2.83,2.83,0,0,0,1.63-3A2.56,2.56,0,0,0,20.72.54,35.62,35.62,0,0,0,12.05.26Z" transform="translate(0 0)" style="fill:#363636"/><path d="M25.77.49a21.85,21.85,0,0,0-.25,4.11c0,4.06.15,3.78-2.2,3.93l-1,.08-.13,2.54L22,13.7,20.85,14a4.75,4.75,0,0,0-3.79,5.3,4.56,4.56,0,0,0,2.58,4.08c1.1.52,1.47.54,11.24.54,5.55,0,10.14.08,10.19.18S40,33.49,38.49,44.72s-2.68,21-2.71,21.67A2.26,2.26,0,0,0,38.13,69a2.21,2.21,0,0,0,2.32-1.9c.13-.52,1.5-10.34,3-21.82s2.86-20.87,2.94-20.87a26.05,26.05,0,0,1,2.19,3.13c2.94,4.63,2.4,4.32,7.64,4.32H60.6V37.5l-5.14.08c-4.72.07-5.21.12-5.88.61C48,39.35,48,39.61,48,49.17s0,9.79,1.52,11l.85.69H81.7l.85-.69c1.49-1.26,1.52-1.52,1.52-11s0-9.82-1.63-11c-.67-.49-1.16-.54-5.88-.61l-5.13-.08V31.87h4.36c5.23,0,4.69.31,7.63-4.32a24.28,24.28,0,0,1,2.2-3.13c.07,0,1.42,9.4,2.94,20.87s2.89,21.3,3,21.82A2.22,2.22,0,0,0,93.9,69a2.25,2.25,0,0,0,2.34-2.62c0-.67-1.26-10.44-2.71-21.67S90.9,24.21,91,24.08s4.64-.18,10.19-.18c9.77,0,10.13,0,11.24-.54A4.58,4.58,0,0,0,115,19.28a4.75,4.75,0,0,0-3.79-5.3L110,13.7l-.13-2.55-.13-2.54-1-.08c-2.34-.15-2.19.13-2.19-3.93a21.48,21.48,0,0,0-.26-4.11c-.2-.36-.54-.49-1.37-.49a2.61,2.61,0,0,0-1.42.31c-.2.2-.31,1.46-.31,3.93s-.1,3.73-.3,3.93a3.23,3.23,0,0,1-1.65.31c-1.63,0-1.66,0-1.66,3.11v2.29H32.48V11.59c0-3.06,0-3.11-1.65-3.11a3.2,3.2,0,0,1-1.65-.31c-.21-.2-.31-1.46-.31-3.93S28.77.51,28.56.31A2.56,2.56,0,0,0,27.14,0C26.32,0,26,.13,25.77.49ZM68.62,40.61a9.49,9.49,0,0,1,6.16,6.17,11.06,11.06,0,0,1-.28,5.78,10.31,10.31,0,0,1-4.57,4.94c-1.29.64-1.75.71-3.92.71s-2.63-.07-3.92-.71a10.25,10.25,0,0,1-4.56-4.94,11,11,0,0,1-.29-5.78,9.57,9.57,0,0,1,6.06-6.17A7.61,7.61,0,0,1,68.62,40.61Z" transform="translate(0 0)" style="fill:#363636"/><path d="M63.79,44.44a5.67,5.67,0,0,0-3.06,5.73,5.42,5.42,0,0,0,8,3.7,5.3,5.3,0,0,0,2.45-5.78A5.39,5.39,0,0,0,66,44,6.61,6.61,0,0,0,63.79,44.44Z" transform="translate(0 0)" style="fill:#363636"/><path d="M36.09.15c-3.92.67-4.51,1.14-4.51,3.45,0,1.82.46,2.41,2.27,2.95,1.55.47,7.17.52,10.5.13,6.86-.82,11.32-2.54,9.7-3.75C52.78,2,49.14,1.05,45,.54A66.49,66.49,0,0,0,36.09.15Z" transform="translate(0 0)" style="fill:#363636"/><path d="M89.48.26C83.17.85,77.62,2.34,77.62,3.44c0,1.73,7.84,3.47,15.63,3.5,5.8,0,7.2-.64,7.2-3.34A2.7,2.7,0,0,0,98.07.51,34.56,34.56,0,0,0,89.48.26Z" transform="translate(0 0)" style="fill:#363636"/><path d="M112.78.28c-1.78.23-3,.77-3.43,1.49a5.17,5.17,0,0,0,.15,3.58c.93,1.31,1.65,1.46,7.07,1.46a44.13,44.13,0,0,0,7.86-.49c3.54-.59,6.61-1.51,7.25-2.23.49-.54.49-.54-.23-1.16-1.34-1.13-6-2.18-11.92-2.67A24.83,24.83,0,0,0,112.78.28Z" transform="translate(0 0)" style="fill:#363636"/></svg>