<?xml version="1.0" encoding="utf-8"?>
<svg xmlns="http://www.w3.org/2000/svg" xmlns:xlink="http://www.w3.org/1999/xlink">
  <symbol viewBox="0 0 11.98 11.96" id="cart" xmlns="http://www.w3.org/2000/svg">
    <path
      d="M11.86 3a.42.42 0 00-.32-.16H9.23v1.25a1.08 1.08 0 01-2.16 0V2.86H4.91v1.23a1.06 1.06 0 01-1.08 1 1.05 1.05 0 01-1.08-1V2.86H.44A.42.42 0 00.11 3a.5.5 0 00-.11.38l.78 7.13A1.44 1.44 0 002.19 12h7.59a1.45 1.45 0 001.42-1.45l.8-7.17a.43.43 0 00-.14-.38z"/>
    <path
      d="M3.83 4.5a.42.42 0 00.43-.41V1.84c0-.63.67-1 1.3-1h1.08a1 1 0 011.07 1v2.25a.44.44 0 00.87 0V1.84A1.83 1.83 0 006.64 0H5.56A2 2 0 003.4 1.84v2.25a.42.42 0 00.43.41z"/>
  </symbol>
  <symbol viewBox="0 0 9.98 10" id="compare" xmlns="http://www.w3.org/2000/svg">
    <path d="M8 2h1.98v8H8zM0 3h1.98v7H0zm4-3h2v10H4z"/>
  </symbol>
  <symbol viewBox="0 0 32 32" id="facebook" xmlns="http://www.w3.org/2000/svg">
    <path
      d="M16 0a16 16 0 1016 16A16 16 0 0016 0zm4.06 9.45H17v3.45h3v3.44h-3V25h-3v-8.66h-3V12.9h3V9.45A3.25 3.25 0 0117 6h3v3.45z"/>
  </symbol>
  <symbol viewBox="0 0 32 32" id="instagram" xmlns="http://www.w3.org/2000/svg">
    <path d="M20.92 16A4.94 4.94 0 0111 16a4.81 4.81 0 01.14-1.14h-.9v6.84h11.4v-6.84h-.9a5.39 5.39 0 01.18 1.14z"/>
    <path d="M16 18.66A2.66 2.66 0 1013.32 16 2.67 2.67 0 0016 18.66zm2.64-8.36h3.04v3.04h-3.04z"/>
    <path
      d="M16 0a16 16 0 1016 16A16 16 0 0016 0zm8 21.7a2.28 2.28 0 01-2.32 2.3h-11.4A2.29 2.29 0 018 21.7V10.3A2.29 2.29 0 0110.28 8h11.39A2.29 2.29 0 0124 10.3v11.4z"/>
  </symbol>
  <symbol viewBox="0 0 163.3 34.96" id="logo" xmlns="http://www.w3.org/2000/svg">
    <path
      d="M0 .68v33.6h13.53a15.72 15.72 0 0011.72-4.82 16.47 16.47 0 004.71-12 16.45 16.45 0 00-4.71-12A15.69 15.69 0 0013.53.68zm7.73 26.21V8.07h5.8a8.65 8.65 0 016.5 2.57 9.39 9.39 0 012.49 6.84 9.39 9.39 0 01-2.49 6.84 8.69 8.69 0 01-6.5 2.57zm34.8-5.91h12.08v-7.3H42.53V8.07h13.29V.68h-21v33.6h21.24v-7.39H42.53v-5.91zm36.34 13.3L89.89.68h-8.45L73.95 25.4 66.45.68H58l11 33.6zm14.41 0h7.73V.68h-7.73zm38.61-1.41a15.59 15.59 0 006-5.69l-6.67-3.84a7.48 7.48 0 01-3.16 3 9.85 9.85 0 01-4.67 1.1 9.56 9.56 0 01-7.17-2.73 9.94 9.94 0 01-2.69-7.25 9.92 9.92 0 012.69-7.25 9.6 9.6 0 017.17-2.74 10 10 0 014.64 1.08 7.63 7.63 0 013.19 3.05l6.67-3.84a15.94 15.94 0 00-6.09-5.69 17.35 17.35 0 00-8.37-2.09 17.11 17.11 0 00-17.59 17.5 17.11 17.11 0 0017.59 17.5 17.57 17.57 0 008.46-2.08zm17.88-11.89h12.08v-7.3h-12.08V8.07h13.29V.68h-21v33.6h21.27v-7.39h-13.56v-5.91z"
      fill-rule="evenodd"/>
  </symbol>
  <symbol viewBox="0 0 26.94 34.09" id="logo-html" xmlns="http://www.w3.org/2000/svg">
    <path
      d="M13.62 0h-.15L0 1.41v24.66l13.47 8 13.43-8V1.41zM25 12.13l-11.51-6.8v-.1h-.08l-.09-.06v.11l-11.4 6.84v-9l11.55-1.18L25 3.15v9zM13.4 6.79l11.52 6.71-4.48 2.64-7.09-4.22v1.41l5.9 3.52-.86.5-5-3v1.42l3.82 2.27-.78.52-3-1.78v1.42l1.85 1.09-1.8 1.08L2 13.62zM1.92 15.13l11.42 6.79v1l-7.93-4.69v1.42l8 4.79v1.08l-8-4.74v1.41l8 4.83 8.15-4.87v-5.18L25 15v10l-11.53 6.85L1.92 25z"/>
  </symbol>
  <symbol viewBox="0 0 32 32" id="twitter" xmlns="http://www.w3.org/2000/svg">
    <path
      d="M16 0a16 16 0 1016 16A16 16 0 0016 0zm7.94 12.81c-.25 6.52-3.46 10.83-11 10.7h-.48c-.45 0-4.55-.44-5.35-1.82a7.32 7.32 0 005.12-1.14c-1.05-.29-2.92-.46-3.25-2.85a2.31 2.31 0 001.3.12C9 17 7.53 16.3 7.61 14.17a2.25 2.25 0 001.46.46c-.77-.23-2.15-3.24-1-4.78 2 1.79 4.07 3.48 7.8 3.64.23-2.21 1.24-3.7 3.17-4.32A3.61 3.61 0 0123 10.31c.74-.23 1.45-.47 2.19-.69a2.21 2.21 0 01-.93 1.71 1.77 1.77 0 001.42-.47 2.9 2.9 0 01-1.74 1.95z"/>
  </symbol>
  <symbol viewBox="0 0 12.94 12" id="user" xmlns="http://www.w3.org/2000/svg">
    <path d="M-.03 12h13a6.2 6.2 0 00-4.7-5.54 3.48 3.48 0 10-3.6 0A6.21 6.21 0 00-.03 12z"/>
  </symbol>
</svg>
