<svg xmlns="http://www.w3.org/2000/svg" width="170.44" height="194" viewBox="0 0 170.44 194"><path d="M77.69,174.64c-.1-.13-10.49-13-12.61-15.76a6.84,6.84,0,0,0-5.59-2.68A12,12,0,0,0,54,157.75l-5.49,2.74a19.12,19.12,0,0,1-9.28-6.26c-3.28-3.84-3.26-9-3.08-11.1l5.89-5.9a6.57,6.57,0,0,0,1.25-8.43l-.22-.31L28.38,110a5.19,5.19,0,0,0-4.18-1.93c-2.85,0-5.88,2-6.76,2.59C6.56,118.4,5.86,125.21,5.81,126l0,.41.07.41c6.41,35.73,26,51.14,35.45,58.55,1.15.9,2.14,1.68,2.86,2.3A25.51,25.51,0,0,0,60.72,194a14.31,14.31,0,0,0,6.09-1.17c4.37-2.08,9.43-8,10.87-9.78a6.85,6.85,0,0,0,.17-8.21ZM63.8,186.51a7.84,7.84,0,0,1-3.08.49,18.68,18.68,0,0,1-11.94-4.63c-.86-.75-1.92-1.58-3.14-2.55-8.7-6.83-26.73-21-32.78-53.68.29-1,1.83-4.94,8.62-9.77a11.64,11.64,0,0,1,2.12-1.14l13.5,17-7.53,7.52-.2,1.06c-.08.42-1.91,10.41,4.52,17.94,6.29,7.35,13.25,8.66,14.59,8.85l1.08.16L57.2,164l.22-.11a5.25,5.25,0,0,1,2.07-.65h.09c2.15,2.8,11.1,13.9,12.5,15.62h0C69.52,181.93,65.91,185.5,63.8,186.51Z" transform="translate(0.35)" style="fill:#fff"/><path d="M137.85,65.82c5.51-5.17,7.16-12,5-20.78a2.46,2.46,0,0,0-1.69-1.8,2.49,2.49,0,0,0-2.41.53l-8.22,7.4a9,9,0,0,1-4.47-5.33l6.81-6.73a2.5,2.5,0,0,0,.1-3.44l-.18-.21a2.45,2.45,0,0,0-.68-.53,20.33,20.33,0,0,0-8.83-2.12,15.46,15.46,0,0,0-12,5.56c-6,6.93-4.56,15-3.54,18.47l-3.49,3.49L94,51.09l4.71-3.27-20-13.72L68.07,44.7l13.72,20L85.06,60,94.3,70.31,91,73.6a22.56,22.56,0,0,0-6.66-1,18.23,18.23,0,0,0-14,6.36,19.63,19.63,0,0,0-2.75,18.62,2.49,2.49,0,0,0,1.72,1.56,2.53,2.53,0,0,0,2.27-.54l8.29-7.26c1.33.57,3.63,2.08,4.66,5.93l-7.38,7.51a2.5,2.5,0,0,0,1.22,4.19,30.47,30.47,0,0,0,6.17.62c6.84,0,12.11-2.27,15.25-6.57a20.93,20.93,0,0,0,4-13.08L120,106.1l.17.16a12.29,12.29,0,0,0,7.45,2.73,9.77,9.77,0,0,0,6.85-2.83l5.52-5.51.1-.11c5-5.35,2.26-11.69.1-14.3l-16.94-17a31.38,31.38,0,0,0,3.32.18C131.5,69.46,135.28,68.24,137.85,65.82ZM84.55,52l-2.73,4L74.54,45.3l4.73-4.73L89.9,47.85l-4,2.73,14.79,13.29L96.65,68l1.19-1.19ZM98.11,85.5A16.7,16.7,0,0,1,95.78,100c-2.77,3.8-7.74,4.53-11.4,4.51l4.71-4.79a2.51,2.51,0,0,0,.68-2.18C88,87.42,80,86.08,79.68,86a2.48,2.48,0,0,0-2,.59l-6.21,5.43a14.73,14.73,0,0,1,2.76-9.93,13.14,13.14,0,0,1,10.13-4.57,16.86,16.86,0,0,1,6.25,1.22,2.49,2.49,0,0,0,2.81-.5l19-19a2.49,2.49,0,0,0,.53-2.76c0-.08-3.49-8.34,2.16-14.87a10.47,10.47,0,0,1,8.22-3.83,14.37,14.37,0,0,1,3.37.42l-5.05,5a2.54,2.54,0,0,0-.73,2.09c1,8.29,9,11.07,9.31,11.19a2.52,2.52,0,0,0,2.47-.51l6-5.45a13.42,13.42,0,0,1-4.31,11.64c-2,1.89-5.35,2.28-7.81,2.28a30.57,30.57,0,0,1-7-.87,2.5,2.5,0,0,0-2.43.65L98.69,82.91A2.53,2.53,0,0,0,98.11,85.5Zm5.5,1.84h0Zm-.18-1.12,0,.16Zm33.09,10.86-5.47,5.48c-3.25,3-6.9.43-7.58-.09L104.83,83.82l14.94-15.07-2,2,18.71,18.71C136.9,90.1,139.54,93.79,136.52,97.08Zm-15.2-28h0Zm-.85-.15h0Z" transform="translate(0.35)" style="fill:#fff"/><path d="M104.16,6a65.92,65.92,0,0,0-8.52,131.28V163.5s57.44-21.24,72-73.62c.07-.28.14-.54.21-.81l.33-1.28.18-.77A65.93,65.93,0,0,0,104.16,6Zm57.35,79.42v.06l0,.13-.12.51c-.09.38-.19.75-.3,1.16l-.11.4c0,.11-.05.22-.08.33-5.56,20-18.52,37.7-38.5,52.44a144.7,144.7,0,0,1-19.72,12.18V131.12l-6.11-.78a58.93,58.93,0,1,1,65-44.92Z" transform="translate(0.35)" style="fill:#fff"/><path d="M54.58,188A25.51,25.51,0,0,1,38,181.63c-.72-.62-1.71-1.4-2.86-2.3-9.42-7.41-29-22.82-35.45-58.54l-.07-.41,0-.42c0-.75.75-7.56,11.63-15.31.88-.62,3.91-2.59,6.76-2.59A5.19,5.19,0,0,1,22.24,104c1.81,2.27,14.67,18.49,14.67,18.49l.22.31a6.57,6.57,0,0,1-1.25,8.44L30,137.13c-.18,2.11-.2,7.26,3.09,11.1a19.08,19.08,0,0,0,9.28,6.27l5.48-2.75a12,12,0,0,1,5.51-1.55,6.86,6.86,0,0,1,5.6,2.68c2.11,2.76,12.5,15.63,12.61,15.76l.15.2a6.85,6.85,0,0,1-.17,8.21c-1.44,1.77-6.5,7.7-10.87,9.78A14.47,14.47,0,0,1,54.58,188ZM6.72,120.14C12.77,152.82,30.81,167,39.5,173.82c1.23,1,2.28,1.8,3.14,2.55A18.68,18.68,0,0,0,54.58,181a7.8,7.8,0,0,0,3.08-.49c2.11-1,5.73-4.58,8.29-7.68h0C64.55,171.1,55.59,160,53.44,157.2h-.08a5.31,5.31,0,0,0-2.08.65l-.21.11-7.65,3.83-1.08-.16c-1.33-.19-8.3-1.51-14.58-8.85-6.44-7.53-4.61-17.52-4.53-17.94l.2-1.06L31,126.26l-13.5-17a11.06,11.06,0,0,0-2.12,1.14C8.55,115.2,7,119.16,6.72,120.14Z" transform="translate(0.35)" style="fill:#3a3a3a"/><path d="M78.44,103.54a30.47,30.47,0,0,1-6.17-.62,2.5,2.5,0,0,1-1.22-4.19l7.38-7.52c-1-3.84-3.33-5.35-4.65-5.92l-8.3,7.26a2.5,2.5,0,0,1-4-1,19.62,19.62,0,0,1,2.75-18.62,18.19,18.19,0,0,1,14-6.36,22.24,22.24,0,0,1,6.66,1l16.77-16.76c-1-3.43-2.46-11.54,3.54-18.47a15.49,15.49,0,0,1,12-5.56A20.33,20.33,0,0,1,126,28.93a2.45,2.45,0,0,1,.68.53l.18.21a2.49,2.49,0,0,1-.1,3.44L120,39.84a8.93,8.93,0,0,0,4.46,5.33l8.22-7.4a2.5,2.5,0,0,1,2.41-.53,2.46,2.46,0,0,1,1.69,1.8c2.13,8.81.48,15.61-5,20.78-2.57,2.42-6.35,3.64-11.24,3.64a36.12,36.12,0,0,1-6.84-.71L97.13,79.4A21.64,21.64,0,0,1,93.69,97C90.56,101.27,85.28,103.54,78.44,103.54Zm-.19-5c3.65,0,8.63-.71,11.4-4.51A16.74,16.74,0,0,0,92,79.5a2.5,2.5,0,0,1,.58-2.59l18.5-18.67a2.48,2.48,0,0,1,2.43-.65,31.08,31.08,0,0,0,7,.87c2.46,0,5.81-.4,7.82-2.28,3.29-3.09,4.68-6.78,4.31-11.65l-6,5.45a2.48,2.48,0,0,1-2.47.51c-.34-.11-8.3-2.89-9.31-11.19a2.48,2.48,0,0,1,.72-2.08l5.05-5a14.31,14.31,0,0,0-3.37-.42A10.52,10.52,0,0,0,109,35.63c-5.65,6.54-2.19,14.8-2.15,14.88a2.52,2.52,0,0,1-.53,2.76l-19,19a2.51,2.51,0,0,1-2.82.5,16.8,16.8,0,0,0-6.25-1.22,13.11,13.11,0,0,0-10.12,4.56A14.61,14.61,0,0,0,65.32,86l6.2-5.42a2.51,2.51,0,0,1,2-.59c.34,0,8.29,1.39,10.08,11.53A2.5,2.5,0,0,1,83,93.75Z" transform="translate(0.35)" style="fill:#f0c42e"/><polygon points="79.27 54.02 88.51 64.31 92.05 60.77 78.77 45.98 76.03 49.92 68.75 39.3 73.49 34.57 84.11 41.84 80.16 44.58 94.95 57.87 98.49 54.32 88.21 45.09 92.93 41.82 72.89 28.1 62.28 38.7 76.01 58.74 79.27 54.02" style="fill:#3a3a3a"/><path d="M117.15,63.28c-1.42-.15-2.64-.36-3.52-.53l-2,2,18.7,18.7c.46.6,3.1,4.29.09,7.58l-5.48,5.47c-3.25,3-6.9.43-7.58-.08L98.69,77.82,97.13,79.4a23.63,23.63,0,0,1,.55,4.48L113.9,100.1l.17.16a12.29,12.29,0,0,0,7.45,2.73,9.85,9.85,0,0,0,6.86-2.83l5.51-5.51.11-.11c5-5.36,2.25-11.7.09-14.3Z" transform="translate(0.35)" style="fill:#3a3a3a"/><path d="M98,7a58.87,58.87,0,0,1,57.35,72.42v.06l0,.13c0,.17-.08.33-.12.51-.09.38-.19.75-.3,1.16l-.1.4-.09.33c-5.56,20-18.52,37.7-38.5,52.44A142.9,142.9,0,0,1,96.5,146.62v-21.5l-6.1-.79A58.91,58.91,0,0,1,98,7m0-7A65.92,65.92,0,0,0,89.5,131.28V157.5s57.44-21.24,72-73.62c.08-.28.14-.54.21-.81.11-.43.23-.85.33-1.28l.18-.77A65.89,65.89,0,0,0,98,0Z" transform="translate(0.35)" style="fill:#3a3a3a"/></svg>